<?xml version="1.0" standalone="no"?>
<!DOCTYPE svg PUBLIC "-//W3C//DTD SVG 20010904//EN"
 "http://www.w3.org/TR/2001/REC-SVG-20010904/DTD/svg10.dtd">
<svg version="1.0" xmlns="http://www.w3.org/2000/svg"
 width="344.000000pt" height="342.000000pt" viewBox="0 0 344.000000 342.000000"
 preserveAspectRatio="xMidYMid meet">

<g transform="translate(0.000000,342.000000) scale(0.100000,-0.100000)"
fill="#000000" stroke="none">
<path d="M1700 2906 c0 -2 7 -7 16 -10 8 -3 12 -2 9 4 -6 10 -25 14 -25 6z"/>
<path d="M1985 2860 c-3 -6 1 -7 9 -4 18 7 21 14 7 14 -6 0 -13 -4 -16 -10z"/>
<path d="M1228 2813 c7 -3 16 -2 19 1 4 3 -2 6 -13 5 -11 0 -14 -3 -6 -6z"/>
<path d="M1170 2795 c-14 -8 -20 -14 -15 -14 6 0 21 6 35 14 14 8 21 14 15 14
-5 0 -21 -6 -35 -14z"/>
<path d="M2017 2773 c-3 -5 8 -8 25 -9 20 -1 25 2 16 7 -16 11 -35 11 -41 2z"/>
<path d="M1528 2713 c7 -3 16 -2 19 1 4 3 -2 6 -13 5 -11 0 -14 -3 -6 -6z"/>
<path d="M2406 2691 c-4 -5 3 -7 14 -4 23 6 26 13 6 13 -8 0 -17 -4 -20 -9z"/>
<path d="M1010 2676 c0 -2 7 -7 16 -10 8 -3 12 -2 9 4 -6 10 -25 14 -25 6z"/>
<path d="M1647 2659 c7 -7 15 -10 18 -7 3 3 -2 9 -12 12 -14 6 -15 5 -6 -5z"/>
<path d="M1010 2580 c-9 -6 -10 -10 -3 -10 6 0 15 5 18 10 8 12 4 12 -15 0z"/>
<path d="M2414 2538 l-19 -23 23 19 c21 18 27 26 19 26 -2 0 -12 -10 -23 -22z"/>
<path d="M1079 2548 c-5 -18 -6 -38 -1 -34 7 8 12 36 6 36 -2 0 -4 -1 -5 -2z"/>
<path d="M1248 2543 c7 -3 16 -2 19 1 4 3 -2 6 -13 5 -11 0 -14 -3 -6 -6z"/>
<path d="M785 2500 c-3 -6 1 -7 9 -4 18 7 21 14 7 14 -6 0 -13 -4 -16 -10z"/>
<path d="M850 2506 c0 -2 7 -7 16 -10 8 -3 12 -2 9 4 -6 10 -25 14 -25 6z"/>
<path d="M2579 2493 c-13 -16 -12 -17 4 -4 16 13 21 21 13 21 -2 0 -10 -8 -17
-17z"/>
<path d="M2670 2496 c0 -2 8 -10 18 -17 15 -13 16 -12 3 4 -13 16 -21 21 -21
13z"/>
<path d="M1124 2458 l-19 -23 23 19 c21 18 27 26 19 26 -2 0 -12 -10 -23 -22z"/>
<path d="M2459 2463 c-13 -16 -12 -17 4 -4 9 7 17 15 17 17 0 8 -8 3 -21 -13z"/>
<path d="M2504 2428 l-19 -23 23 19 c12 11 22 21 22 23 0 8 -8 2 -26 -19z"/>
<path d="M2630 2430 c-8 -5 -12 -12 -9 -15 4 -3 12 1 19 10 14 17 11 19 -10 5z"/>
<path d="M822 2418 c2 -6 10 -13 16 -14 7 -1 8 0 2 3 -5 2 -8 9 -4 14 3 5 0 9
-6 9 -7 0 -10 -5 -8 -12z"/>
<path d="M2013 2349 c-49 -24 -113 -90 -142 -146 -44 -88 -55 -157 -53 -347 1
-177 1 -180 -27 -245 -46 -105 -53 -138 -56 -274 -4 -130 -13 -175 -47 -233
-16 -26 -17 -37 -8 -54 8 -16 15 -18 24 -11 9 8 22 1 47 -25 50 -52 165 -126
254 -163 235 -98 439 -77 590 61 45 40 56 47 61 34 6 -16 8 -16 25 0 17 16 17
18 -2 67 -38 95 -40 131 -11 205 28 74 75 145 181 272 85 103 126 180 148 281
15 73 15 78 -3 115 -26 53 -72 77 -145 77 -76 0 -160 -41 -247 -119 -45 -40
-66 -53 -75 -46 -6 6 -40 19 -74 31 -33 11 -77 30 -97 42 -20 12 -55 27 -78
34 l-42 12 4 54 c22 301 -71 456 -227 378z m120 -49 c43 -34 62 -109 61 -243
-1 -65 -5 -122 -11 -128 -5 -5 -36 -16 -69 -25 -72 -19 -134 -54 -196 -112
-45 -42 -48 -43 -49 -21 0 13 -2 52 -5 85 -8 81 10 216 36 286 34 92 123 177
186 178 12 0 33 -9 47 -20z m805 -412 c21 -20 23 -29 18 -73 -8 -75 -22 -115
-63 -183 -30 -48 -181 -242 -189 -242 -1 0 -3 30 -3 68 -1 106 -29 191 -84
264 l-36 47 47 39 c112 92 162 115 236 107 32 -3 57 -12 74 -27z m-596 -61
c40 -19 96 -42 123 -52 68 -24 143 -102 170 -175 27 -74 27 -237 1 -330 -58
-200 -167 -308 -322 -318 -39 -2 -94 1 -122 8 l-50 12 39 35 c21 19 52 58 68
86 23 39 31 48 36 35 16 -40 155 -107 185 -88 23 14 3 37 -42 48 -55 14 -111
61 -137 115 -27 55 -37 149 -22 205 11 37 15 42 42 42 45 0 99 26 99 48 0 29
-20 48 -87 82 -42 21 -74 30 -95 28 -29 -3 -33 -7 -36 -36 -2 -23 4 -46 22
-72 l25 -38 -28 -39 c-61 -84 -134 -132 -216 -140 -62 -7 -113 8 -145 42 -13
14 -29 25 -36 25 -28 0 -25 -23 7 -56 39 -40 123 -69 176 -61 30 5 34 4 28
-11 -15 -39 -27 -116 -23 -153 2 -21 1 -39 -2 -39 -11 0 -116 73 -149 103 -54
51 -71 99 -71 202 0 158 49 289 147 396 130 140 260 170 415 96z m-127 -687
c-54 -106 -133 -154 -156 -93 -19 50 18 208 52 218 10 3 34 19 55 36 l38 30
18 -71 18 -72 -25 -48z m219 -264 c-11 -29 -211 -52 -202 -23 3 7 35 14 87 18
45 4 85 9 88 13 12 12 32 6 27 -8z"/>
<path d="M1972 1734 c-65 -27 -49 -66 18 -44 39 13 41 12 70 -15 29 -28 60
-29 60 -2 0 22 -53 64 -87 69 -18 2 -45 -1 -61 -8z"/>
<path d="M2471 1521 c-20 -13 -6 -41 21 -41 35 -1 60 -26 67 -67 4 -24 12 -39
23 -41 44 -8 24 101 -24 131 -32 20 -70 28 -87 18z"/>
<path d="M775 2340 c10 -11 20 -20 23 -20 3 0 -3 9 -13 20 -10 11 -20 20 -23
20 -3 0 3 -9 13 -20z"/>
<path d="M2485 2320 c10 -11 20 -20 23 -20 3 0 -3 9 -13 20 -10 11 -20 20 -23
20 -3 0 3 -9 13 -20z"/>
<path d="M840 2286 c0 -2 8 -10 18 -17 15 -13 16 -12 3 4 -13 16 -21 21 -21
13z"/>
<path d="M2527 2279 c7 -7 15 -10 18 -7 3 3 -2 9 -12 12 -14 6 -15 5 -6 -5z"/>
<path d="M1327 2209 c-21 -17 -47 -50 -59 -72 -11 -23 -21 -43 -23 -45 -1 -1
-27 -9 -59 -17 -62 -16 -159 -62 -223 -107 -40 -27 -46 -28 -85 -17 -45 12
-115 7 -148 -11 -31 -16 -27 -85 8 -152 27 -51 28 -56 15 -93 -8 -22 -15 -74
-15 -115 -1 -62 4 -86 26 -132 102 -216 422 -271 696 -120 92 50 208 169 250
255 28 57 34 83 38 153 5 95 -8 144 -59 214 -32 44 -140 120 -170 120 -13 0
-21 12 -29 40 -15 54 -70 124 -100 128 -16 2 -39 -9 -63 -29z m87 -24 c24 -26
40 -59 50 -106 4 -19 18 -30 63 -49 231 -95 259 -361 59 -563 -146 -149 -361
-222 -542 -184 -129 27 -196 74 -243 169 -25 50 -31 73 -31 127 1 36 9 89 18
117 18 51 18 52 -5 78 -24 28 -46 96 -41 124 5 27 81 37 137 18 l46 -15 57 40
c72 50 166 93 241 109 40 9 57 18 57 29 0 35 75 131 103 131 4 0 18 -11 31
-25z"/>
<path d="M1516 1881 c-32 -33 -20 -51 18 -26 26 17 39 39 29 49 -11 10 -19 7
-47 -23z"/>
<path d="M1343 1834 c-8 -21 13 -42 28 -27 13 13 5 43 -11 43 -6 0 -13 -7 -17
-16z"/>
<path d="M1558 1827 c-31 -12 -38 -37 -10 -37 21 0 62 27 62 41 0 11 -17 10
-52 -4z"/>
<path d="M1550 1745 c0 -11 11 -15 40 -15 29 0 40 4 40 15 0 11 -11 15 -40 15
-29 0 -40 -4 -40 -15z"/>
<path d="M1209 1704 c-10 -13 -10 -17 2 -25 26 -16 47 -10 51 16 4 21 1 25
-17 25 -12 0 -28 -7 -36 -16z"/>
<path d="M1021 1686 c-9 -10 -8 -16 4 -26 19 -16 41 1 32 24 -8 20 -21 20 -36
2z"/>
<path d="M1393 1633 c-27 -30 -37 -34 -60 -29 -15 4 -38 19 -50 33 -19 23 -23
25 -28 11 -4 -9 -2 -25 3 -35 22 -42 -19 -83 -83 -83 -47 0 -43 -24 4 -28 46
-5 89 15 107 50 12 23 19 27 40 22 47 -12 114 35 114 81 0 23 -12 18 -47 -22z"/>
<path d="M857 1583 c-17 -16 -4 -24 35 -21 55 4 64 28 11 28 -22 0 -43 -3 -46
-7z"/>
<path d="M913 1524 c-57 -25 -52 -53 6 -31 19 7 31 18 31 29 0 10 -1 18 -2 17
-2 0 -17 -7 -35 -15z"/>
<path d="M942 1457 c-22 -24 -29 -47 -13 -47 12 0 61 47 61 60 0 18 -26 11
-48 -13z"/>
</g>
</svg>
